<?xml version="1.0" encoding="UTF-8"?><svg id="Layer_1" xmlns="http://www.w3.org/2000/svg" viewBox="0 0 14.99 14.99"><defs><style>.cls-1{fill:#fff;fill-rule:evenodd;}</style></defs><path class="cls-1" d="M12.91,8.72c.5,.51,1.02,1,1.47,1.57,.19,.25,.38,.51,.53,.8,.2,.42,.02,.88-.33,.9h-2.18c-.56,.05-1.01-.19-1.39-.6-.3-.33-.58-.68-.88-1.02-.12-.14-.25-.26-.4-.37-.3-.2-.55-.14-.73,.19-.17,.34-.21,.71-.23,1.08-.02,.54-.18,.69-.69,.72-1.11,.06-2.16-.12-3.12-.71-.86-.52-1.52-1.26-2.11-2.09C1.71,7.56,.85,5.78,.07,3.95c-.17-.41-.04-.63,.38-.64,.71-.02,1.43-.02,2.14,0,.29,0,.48,.18,.59,.47,.39,1,.86,1.97,1.45,2.85,.16,.23,.32,.47,.55,.64,.25,.18,.45,.12,.57-.18,.07-.19,.11-.39,.13-.6,.05-.7,.06-1.39-.03-2.09-.06-.43-.29-.72-.7-.8-.21-.04-.18-.12-.08-.25,.18-.22,.34-.36,.67-.36h2.47c.39,.08,.47,.27,.53,.68v2.91c0,.16,.07,.64,.35,.74,.22,.07,.36-.11,.49-.26,.59-.66,1.02-1.45,1.39-2.27,.17-.36,.31-.74,.45-1.11,.1-.27,.27-.41,.56-.41h2.38c.07,0,.14,0,.21,.02,.4,.07,.52,.26,.39,.67-.2,.66-.57,1.19-.94,1.74-.39,.58-.82,1.14-1.22,1.73-.35,.54-.32,.81,.12,1.27Z"/></svg>