<?xml version="1.0" standalone="no"?>
<!DOCTYPE svg PUBLIC "-//W3C//DTD SVG 20010904//EN"
 "http://www.w3.org/TR/2001/REC-SVG-20010904/DTD/svg10.dtd">
<svg version="1.0" xmlns="http://www.w3.org/2000/svg"
 width="760.000000pt" height="760.000000pt" viewBox="0 0 760.000000 760.000000"
 preserveAspectRatio="xMidYMid meet">
<metadata>
Created by potrace 1.14, written by Peter Selinger 2001-2017
</metadata>
<g transform="translate(0.000000,760.000000) scale(0.100000,-0.100000)"
fill="#000000" stroke="none">
<path d="M1070 4350 l-570 -1141 2 -322 3 -322 772 -3 773 -2 2 -228 3 -227
395 0 395 0 0 875 0 875 -380 0 -380 0 -3 -317 -2 -318 -320 0 -320 0 28 58
c137 274 1082 2200 1082 2205 0 4 -205 7 -455 7 l-455 0 -570 -1140z"/>
<path d="M3790 5373 c-1 -260 -20 -767 -35 -907 -31 -294 -92 -582 -170 -806
-46 -132 -81 -208 -153 -337 l-56 -103 -176 -2 -175 -3 -3 -557 -2 -558 395 0
395 0 2 228 3 227 843 3 842 2 0 -231 0 -230 253 3 253 3 66 33 c78 38 148
110 187 192 l26 55 3 376 c3 374 3 375 -19 403 -39 50 -70 56 -284 56 l-195 0
0 1135 0 1135 -1000 0 -1000 0 0 -117z m1180 -1338 l0 -815 -414 0 -414 0 52
103 c125 247 221 662 267 1157 12 129 26 251 31 270 21 87 57 99 296 100 l182
0 0 -815z"/>
</g>
</svg>
