<?xml version="1.0" encoding="UTF-8"?><svg id="Layer_1" xmlns="http://www.w3.org/2000/svg" viewBox="0 0 572 572"><defs><style>.cls-1{fill:#fff;}.cls-2{fill:#6bcef5;}</style></defs><rect class="cls-2" width="572" height="572"/><g><path class="cls-1" d="M428.87,307.56v89.44h-43.96v-79.08c-3.02-4.55-9.73-12.47-21.55-16.26,.27,.56,.52,1.11,.76,1.65l1.89,4.26v89.44h-43.96v-79.08c-4.08-6.13-14.86-18.39-35.83-18.39s-30.7,10.61-34.54,15.96v81.51h-43.96v-91.97l1.83-4.14c-12.63,3.04-19.49,10.42-22.48,14.6v81.51h-43.96v-91.97l1.86-4.23c7.39-16.8,31.85-45.23,76.63-45.23,14.14,0,25.42,1.85,34.42,4.84,8.79-3.01,18.84-4.84,30.19-4.84,11.98,0,22.56,2.15,31.79,5.64,8.91-3.37,19.3-5.64,31.08-5.64,44.73,0,70,30,77.88,47.74l1.89,4.26Z"/><path class="cls-1" d="M386.24,211.5c0,20.15-16.34,36.5-36.5,36.5-13.37,0-25.08-7.2-31.43-17.94-6.35,10.73-18.05,17.94-31.43,17.94s-26.2-7.91-32.31-19.5c-6.11,11.6-18.28,19.5-32.3,19.5-20.16,0-36.5-16.35-36.5-36.5s16.34-36.5,36.5-36.5c14.02,0,26.19,7.91,32.3,19.5,6.11-11.6,18.29-19.5,32.31-19.5s25.07,7.19,31.43,17.94c6.35-10.74,18.06-17.94,31.43-17.94,20.16,0,36.5,16.34,36.5,36.5Z"/></g></svg>