<?xml version="1.0" encoding="UTF-8"?><svg id="Layer_1" xmlns="http://www.w3.org/2000/svg" viewBox="0 0 65.65 60.18"><defs><style>.cls-1{fill:#125096;}</style></defs><circle class="cls-1" cx="24.62" cy="32.82" r="2.74"/><circle class="cls-1" cx="41.03" cy="32.82" r="2.74"/><path class="cls-1" d="M58.26,23.81c-2.16-4.94-6.08-9.05-11.01-11.83,.88-1.49,1.55-3.08,1.99-4.72-6.02,1.59-12.68,.1-17.4-4.62-3.53-3.53-9.25-3.53-12.78,0-2.71,2.71-3.32,6.69-1.88,10-4.37,2.76-7.81,6.63-9.8,11.17-4.29,1.3-7.39,4.82-7.39,9.01s3.1,7.72,7.39,9.01c3,6.84,9.29,12.19,17.13,14.45,2.01,2.36,4.96,3.89,8.31,3.89s6.3-1.53,8.31-3.89c7.83-2.25,14.13-7.6,17.13-14.45,4.29-1.3,7.39-4.82,7.39-9.01s-3.1-7.72-7.39-9.01ZM22.93,6.51c.67-.67,1.57-1.04,2.52-1.04s1.85,.37,2.52,1.04c3.16,3.16,7.08,5.31,11.37,6.26-2.16,1.61-4.76,2.47-7.5,2.47-3.37,0-6.53-1.31-8.91-3.69-1.39-1.39-1.39-3.65,0-5.04Zm9.9,48.19c-3.02,0-5.47-2.45-5.47-5.47s2.45-5.47,5.47-5.47,5.47,2.45,5.47,5.47-2.45,5.47-5.47,5.47Zm21.88-17.78c-.17,0-.34-.03-.51-.04-1.32,5.34-5.2,9.85-10.45,12.52,0-.06,.02-.11,.02-.17,0-6.04-4.9-10.94-10.94-10.94s-10.94,4.9-10.94,10.94c0,.06,.02,.11,.02,.16-5.25-2.66-9.13-7.18-10.45-12.51-.17,.01-.33,.04-.51,.04-2.96,0-5.47-1.88-5.47-4.1s2.51-4.1,5.47-4.1c.17,0,.34,.03,.51,.04,1.22-4.93,4.63-9.16,9.28-11.87,6.78,5.3,16.45,5.08,22.99-.66,5.26,2.66,9.15,7.18,10.47,12.53,.17-.01,.33-.04,.51-.04,2.96,0,5.47,1.88,5.47,4.1,0,2.23-2.51,4.1-5.47,4.1Z"/></svg>