<?xml version="1.0" encoding="UTF-8"?><svg id="Layer_1" xmlns="http://www.w3.org/2000/svg" viewBox="0 0 31.49 34.56"><defs><style>.cls-1{fill:#eaf4fd;fill-rule:evenodd;}</style></defs><path class="cls-1" d="M13.47,26.84c7.46,0,13.47-6.04,13.47-13.42S20.89,0,13.47,0,0,5.99,0,13.37s6.01,13.47,13.47,13.47Zm0-6.14c4.06,0,7.31-3.29,7.31-7.28s-3.31-7.28-7.31-7.28-7.31,3.29-7.31,7.28,3.26,7.28,7.31,7.28Z"/><path class="cls-1" d="M19.99,26.44l6.06,7.03c1.1,1.3,3.06,1.45,4.36,.35,1.3-1.1,1.45-3.04,.35-4.34l-5.91-6.89c-1.3,1.6-2.96,2.89-4.86,3.84Z"/></svg>