<?xml version="1.0" encoding="UTF-8"?><svg id="Layer_1" xmlns="http://www.w3.org/2000/svg" viewBox="0 0 415.62 403.93"><defs><style>.cls-1{fill:#f7fbfe;}.cls-2{fill:#fcfeff;}</style></defs><path class="cls-2" d="M1.15,229.69C-6.01,179.24,18.79,124.26,117.1,62.1,215.41-.07,271.5-14.64,314.87,14.27c43.37,28.91,46.55,49.27,75.47,125.89,28.91,76.62,48.86,210.96-32.1,250-80.96,39.03-168.86-12.9-248.38-56.27C30.35,290.52,6.44,266.96,1.15,229.69Z"/><path class="cls-1" d="M285.61,315.53h-121.59v-52.78h-52.78v-121.56h52.78v-52.78h121.59v52.78h52.78v121.56h-52.78v52.78Zm-86.17-35.42h50.74v-52.78h52.78v-50.71h-52.78v-52.78h-50.74v52.78h-52.78v50.71h52.78v52.78Z"/></svg>