<svg id="Layer_1" data-name="Layer 1" xmlns="http://www.w3.org/2000/svg" viewBox="0 0 1059 1093"><defs><style>.cls-1{fill:#eaf4fd;}</style></defs><path class="cls-1" d="M1012.39,729.16C968.74,693.55,914.45,690,865.2,717.6c-42.37,23.77-64.77,72.59-57.16,129.1,2,15.3-2.22,25.28-13.78,33.68C741.2,919,688.92,958.78,634.86,995.91c-39.78,27.35-88,18-114.45-18.82-26.07-36.11-19.68-85.8,17.51-115,94.57-74.32,194.3-141.81,286.21-219.65,58-49,109.78-103.46,144.25-171.24,47.46-93.27,55.07-188,18.74-289.94C950.64,78.85,884,20.76,779.39,4.1c-91.54-14.64-173,11.49-243.19,70.44-10.55,8.83-28.07,24-28.07,24s-16.45-14.14-26.5-23C425.91,25.93,358.63.59,285,0,69.13-1.71-24.86,197.25,13.34,376.25,46,529.19,153.21,630.36,275.77,716.88c19.89,14.08,40.14,16.45,56.51-5.81,17.09-23.19,9.77-42.37-11.27-58.67-23.48-18.23-48-35.54-70.22-55.28-80-70.87-150.14-149.21-163.28-260.93-10.34-87.6,8.33-170,83.65-223.59,72.59-51.77,151.72-40.14,227.18.28,28.58,15.3,51.48,38.42,74.6,61,14,13.71,24.56,20.32,35.19,20.24,10.41-.07,21-6.6,35-19.24,19.46-17.52,38.2-36.19,59.38-51.48,99.59-72.16,235.59-54.5,290.8,39.71,50.12,85.37,52.42,174.91,8.19,263.72-42.65,85.66-112.8,147.13-187.26,204C635.5,691,554.37,748.05,477.54,810.37c-64.48,52.34-71.8,146.76-22.4,213.54,50.4,68.14,148.27,88.24,217.49,42.08,42.57-28.37,82.57-60.61,123.71-91.19,41.07-31.45,42.29-40,74.24-37.34,1.22.14,2.52.29,3.81.5,77.55,34.11,159.62.43,178.93-73.52C1067.32,810.94,1055.91,764.63,1012.39,729.16Zm-33.31,100.6c-1.58,26.13-23.41,45.09-50.34,43.8-26.06-1.3-46.17-24.27-43.87-50.19,2.3-26.5,24.92-46.46,50.41-44.59C961.63,780.79,980.73,803.05,979.08,829.76Z"/><polygon class="cls-1" points="659.3 250.45 659.3 572.63 572.35 572.63 572.35 458.46 443.89 458.46 443.89 572.63 356.94 572.63 356.94 250.45 443.89 250.45 443.89 371.51 572.35 371.51 572.35 250.45 659.3 250.45"/></svg>