<?xml version="1.0"?>
<svg width="89.95" height="90.71" xmlns="http://www.w3.org/2000/svg" xmlns:svg="http://www.w3.org/2000/svg">
 <defs>
  <style>.cls-1{fill:#125096;}.cls-2{fill:#b6e3f6;}</style>
 </defs>
 <g class="layer">
  <title>Layer 1</title>
  <path d="m23.25,3.9c16.65,-7.51 30.03,-2.28 39.5,0s20.89,10.12 24.15,17.95c3.26,7.83 7.18,25.46 -7.51,46.68c-14.69,21.22 -32.31,24.15 -39.17,21.22c-6.85,-2.94 -38.51,-19.59 -40.14,-44.4c-1.63,-24.8 23.17,-41.45 23.17,-41.45z" fill="#ffcccc" id="svg_1"/>
  <rect fill="#ff0000" height="63" id="svg_5" transform="matrix(1 0 0 1 0 0) matrix(0.580374 0.577348 -0.568952 0.595235 34.6448 -11.8472)" width="11" x="52.29" y="10.3"/>
  <rect fill="#ff0000" height="63" id="svg_6" transform="matrix(1 0 0 1 0 0) matrix(-0.6043 0.552255 -0.567499 -0.596621 104.862 35.032)" width="11" x="56.43" y="7.33"/>
 </g>
</svg>