<?xml version="1.0" encoding="UTF-8"?><svg id="Layer_1" xmlns="http://www.w3.org/2000/svg" viewBox="0 0 188.55 96.17"><defs><style>.cls-1{fill:#fff;}.cls-2{fill:#ec3752;}.cls-3{fill:#00599d;}.cls-4{fill:#00b8f1;}</style></defs><path class="cls-3" d="M14.62,77.63v18.18h-4.86v-13.73H4.86v13.73H0v-18.18H14.62Zm34.86,0v18.17h-4.86v-13.72h-2.85c-.05,.9-.09,1.81-.15,2.71-.07,1.11-.2,2.21-.39,3.27s-.46,2.07-.8,3c-.35,.94-.86,1.8-1.51,2.56-.64,.75-1.45,1.36-2.4,1.8-.94,.43-2.1,.68-3.44,.73l-.54,.02h-.19c.26-.22,.51-.44,.74-.68,1.03-1.06,1.72-2.45,2.3-3.93,.74-1.93,1.38-5.36,1.52-7.06,.13-1.52,.19-3.17,.22-5.01,0-.12,0-.23,0-.35t0-.02c.12-.84,.81-1.48,1.65-1.48h10.69Zm50.5-.01v18.17h-4.86v-13.72h-2.85c-.05,.9-.09,1.81-.15,2.71-.07,1.11-.2,2.21-.39,3.27s-.46,2.07-.8,3c-.35,.94-.86,1.8-1.51,2.56-.64,.75-1.35,1.12-2.3,1.56-.94,.43-2.28,.57-3.62,.61l-.54,.02h-.19c.06-.05,.12-.1,.17-.15,.2-.17,.39-.34,.58-.54,1.03-1.06,1.8-2.09,2.38-3.57,.32-.82,.61-1.92,.86-3.03,0-.02,.01-.06,.02-.1,.28-1.31,.51-2.64,.6-3.58,.01-.11,.02-.23,.04-.34,.04-.38,.06-.76,.08-1.16,.02-.4,.05-.81,.07-1.22,.02-.83,.05-1.7,.07-2.63,0-.12,.01-.23,.01-.35t0-.02s.01-.01,.01-.02c.12-.83,.81-1.46,1.64-1.46h10.68Zm-32.67-.01v18.17h-4.81v-10.01c-.98,1.27-1.93,2.61-2.83,4-1.21,1.86-2.34,3.76-3.39,5.71l-.18,.31h-4.02v-18.18h4.83v8.62c.25-.37,.49-.73,.74-1.11,.65-.95,1.31-1.88,1.96-2.78,.66-.9,1.31-1.74,1.94-2.53,.63-.79,1.23-1.47,1.76-2.02l.16-.18s3.84,0,3.84,0Z"/><path class="cls-3" d="M82.95,95.82h-3.16s-.17-.3-.17-.3c-.33-.54-.71-1.11-1.16-1.75-.44-.62-.92-1.26-1.43-1.91-.51-.64-1.04-1.25-1.59-1.82-.24-.24-.46-.48-.7-.7v6.47h-4.84v-18.18h4.86v5.44c.61-.68,1.23-1.38,1.85-2.1,.98-1.13,1.87-2.16,2.7-3.13l.18-.21h5.89l-.81,1c-1.11,1.37-2.24,2.72-3.37,3.99-.98,1.1-2.03,2.24-3.11,3.38,1.16,1.06,2.29,2.29,3.37,3.68,1.21,1.55,2.4,3.3,3.55,5.2,0,0-2.06,.94-2.06,.94Zm34.86-18.19v18.17h-4.81v-10.01c-.99,1.27-1.93,2.61-2.84,4-1.2,1.87-2.35,3.79-3.39,5.71l-.17,.31h-4.02v-18.18h4.83v8.62c.24-.37,.48-.73,.74-1.11,.65-.95,1.3-1.88,1.96-2.78,.66-.9,1.31-1.74,1.93-2.53,.64-.79,1.24-1.47,1.77-2.02l.17-.18s3.83,0,3.83,0Zm17.3,0v18.18h-4.86v-7.19h-5v7.19h-4.85v-18.18h4.85v6.48h5v-6.48h4.86Zm17.82,0v18.17h-4.81v-10.01c-.99,1.27-1.93,2.61-2.84,4-1.2,1.87-2.35,3.79-3.4,5.71l-.17,.31h-4.02v-18.18h4.83v8.62c.24-.37,.48-.73,.74-1.11,.65-.95,1.3-1.88,1.96-2.78s1.31-1.74,1.93-2.53c.64-.79,1.24-1.47,1.77-2.02l.17-.18h3.84Zm18.25,18.18h-5.76l-.16-.29c-.33-.54-.71-1.11-1.16-1.75-.44-.62-.92-1.26-1.43-1.91-.5-.63-1.03-1.24-1.59-1.82-.24-.24-.47-.48-.7-.7v6.47h-4.86v-18.18h4.86v5.44c.61-.68,1.23-1.38,1.85-2.1,.98-1.13,1.87-2.16,2.7-3.13l.18-.21h5.89l-.81,1c-1.11,1.37-2.24,2.72-3.37,3.99-.98,1.1-2.03,2.24-3.12,3.38,1.17,1.06,2.3,2.29,3.38,3.68,1.21,1.55,2.4,3.3,3.54,5.2l.56,.93h0Z"/><path class="cls-3" d="M188.28,94.99c-.61-1.82-1.2-3.51-1.76-5.06-.55-1.55-1.1-3.02-1.63-4.4-.53-1.37-1.06-2.68-1.58-3.91-.53-1.24-1.06-2.45-1.59-3.62l-.17-.35h-4.23l-.15,.34c-.55,1.17-1.1,2.4-1.61,3.63-.51,1.24-1.04,2.54-1.57,3.91-.53,1.38-1.07,2.85-1.63,4.4-.55,1.55-1.13,3.24-1.74,5.08l-.28,.81h5.09l.13-.43,.57-1.8,.48-1.44h5.54l.49,1.44c.2,.61,.4,1.22,.58,1.8l.13,.43h5.2s-.27-.83-.27-.83Zm-9.26-10.22c.13-.37,.26-.7,.37-1l.38,1c.21,.55,.44,1.16,.66,1.82,.15,.42,.29,.84,.45,1.28h-2.99c.16-.44,.32-.86,.47-1.27,.23-.65,.46-1.27,.66-1.83Zm-145.76-2.12c-.45-1.16-1.08-2.18-1.87-2.98-.79-.81-1.75-1.43-2.81-1.82-2.07-.78-4.55-.81-6.66,0-1.06,.4-2,1.02-2.81,1.82-.8,.81-1.44,1.81-1.91,2.98s-.71,2.53-.71,4.06,.22,2.89,.68,4.06c.45,1.17,1.08,2.18,1.87,2.97,.8,.79,1.74,1.41,2.81,1.81,1.05,.4,2.18,.6,3.36,.6s2.36-.2,3.42-.6c1.07-.4,2.02-1.02,2.79-1.81,.78-.81,1.4-1.81,1.85-2.98,.44-1.16,.66-2.53,.66-4.05,.02-1.53-.21-2.89-.67-4.06Zm-6.46,8.6c-.93,.44-2.28,.43-3.17,0-.45-.22-.84-.54-1.14-.94-.32-.42-.57-.93-.74-1.53-.18-.6-.27-1.3-.27-2.07s.09-1.44,.27-2.07c.18-.6,.42-1.11,.74-1.53,.32-.4,.7-.72,1.16-.95,.45-.23,.98-.34,1.58-.34s1.12,.11,1.58,.33c.46,.23,.84,.54,1.16,.94,.32,.42,.57,.94,.74,1.53,.18,.62,.27,1.32,.27,2.09s-.09,1.47-.27,2.07-.42,1.11-.74,1.53c-.32,.4-.71,.71-1.17,.94Z"/><path class="cls-2" d="M184.22,46.47h-6.68V6.41h-35.35v1.99c0,3.73-.07,7.29-.18,10.68-.13,3.4-.44,6.69-.96,9.88-.51,3.19-1.28,6.34-2.32,9.43-1.03,3.1-2.03,4.95-3.85,8.08h-6.19v19.73h13.98v-8.16h29.72v8.16h7.02c3.81,0,6.9-3.09,6.9-6.9v-10.74c0-1.16-.94-2.09-2.09-2.09h0Zm-21.09,0h-14.7c1.23-2.21,1.81-3.33,2.62-5.9,.81-2.59,1.47-5.24,1.96-7.96,.49-2.73,.86-5.49,1.1-8.3,.17-2,.32-3.1,.41-4.52,.08-1.1,.98-1.96,2.08-1.96h6.52v28.64h0Z"/><path class="cls-4" d="M63.79,17.8v30.54c0,.11-.02,.22-.04,.31-.03,.1-.08,.19-.13,.28-.03,.06-.08,.11-.13,.16-.19,.19-.44,.31-.72,.31h-14.09c-.57,0-1.02,.48-1.02,1.07v14.6c0,.6-.46,1.07-1.03,1.07H17.17c-.57,0-1.02-.47-1.02-1.07v-14.6c0-.59-.46-1.07-1.03-1.07H1.03c-.57,0-1.02-.47-1.02-1.06V17.8c0-.59,.46-1.06,1.02-1.06H15.11c.57,0,1.03-.47,1.03-1.07V1.07c.01-.59,.46-1.07,1.03-1.07h29.45c.57,0,1.03,.48,1.03,1.07V15.67c0,.59,.46,1.07,1.02,1.07h14.09c.28,0,.53,.12,.72,.31,.12,.12,.21,.27,.26,.44,.03,.09,.05,.2,.05,.31Z"/><circle class="cls-1" cx="31.9" cy="32.27" r="14.3"/><path class="cls-3" d="M85.62,16.78c-.77,5.55-3.34,10.65-7.11,14.44-.14,.14-.28,.29-.43,.43-.53,.52-1.08,1-1.67,1.46-.11,.09-.23,.17-.34,.26-2.64,1.97-5.86,3.35-9.39,4-1.41,.26-2.65,.4-4.15,.4-7.35,0-9.66-3.21-13.44-4.57-1.06-.61-2.27-.93-3.49-.93h0c-.28,0-.56,.02-.84,.06-.17,0-.34,.03-.5,.07-.14,.03-.27,.06-.41,.1-2.57,.64-4.57,2.67-5.18,5.25h-14.42s.25-2.5,.83-4.54c1.51-5.47,5.79-9.97,11.42-12.35,1.49-.63,3.07-1.11,4.72-1.42,1.4-.26,2.86-.4,4.35-.4,6.82,0,10.35,3.17,13.81,4.55,.02,.01,.04,.02,.06,.02,.39,.16,.79,.3,1.19,.4l.42,.09c.2,.05,.41,.08,.62,.09,.22,.03,.44,.04,.67,.04,.21,0,.42-.01,.63-.03,.19-.02,.37-.04,.55-.08,.27-.04,.53-.11,.79-.19,2.37-.65,4.24-2.53,4.91-4.9,.18-.62,.27-1.38,.27-2.05,0-.07,0-.13-.01-.2h16.15Z"/><path class="cls-2" d="M52.74,39.42c0,3.95-3.2,7.15-7.15,7.15s-7.14-3.2-7.14-7.15c0-.58,.07-1.14,.21-1.67,.02-.11,.05-.21,.08-.31,.69-2.44,2.64-4.32,5.1-4.94,.14-.04,.27-.07,.41-.1,.16-.04,.33-.06,.5-.07,.28-.04,.56-.06,.84-.06h0c1.27,0,2.46,.34,3.49,.93,2.26,1.25,3.66,3.64,3.65,6.22Z"/><path class="cls-2" d="M125.62,53.56v12.53h-13.96v-8.09h-27.3v-11.54L104.38,6.41h16.15l-19.7,40.05h11.28v-11.24h13.52v18.34h-.01Z"/></svg>