<?xml version="1.0" encoding="UTF-8"?><svg id="Layer_1" xmlns="http://www.w3.org/2000/svg" viewBox="0 0 15.02 15.02"><defs><style>.cls-1{fill:#fff;}</style></defs><path class="cls-1" d="M9.1,10.88c.82-.18,1.6-.5,2.31-.94,.52-.37,.71-1.06,.32-1.56-.32-.5-1.03-.62-1.54-.38-1.67,1-3.73,1-5.34,0-.51-.31-1.29-.19-1.61,.38-.32,.5-.19,1.25,.39,1.56,.71,.44,1.48,.75,2.31,.94l-2.31,2.19c-.43,.41-.45,1.09-.04,1.52,.01,.02,.03,.03,.04,.04,.19,.25,.51,.38,.84,.38s.58-.12,.84-.31l2.18-2.12,2.19,2.12c.45,.44,1.22,.44,1.67,0,.45-.44,.45-1.12,0-1.56-.07-.06-2.25-2.25-2.25-2.25h0Zm-1.61-3.12c2.19,0,3.99-1.75,3.99-3.88-.07-2.12-1.8-3.88-3.99-3.88S3.51,1.75,3.51,3.88s1.73,3.88,3.98,3.88h0Zm0-5.5c.9,0,1.67,.75,1.67,1.62s-.71,1.62-1.67,1.62c-.9,0-1.67-.69-1.67-1.62,0-.88,.71-1.62,1.67-1.62h0Z"/></svg>