<?xml version="1.0" encoding="UTF-8"?><svg id="Layer_1" xmlns="http://www.w3.org/2000/svg" viewBox="0 0 14.99 14.99"><defs><style>.cls-1{fill:#fff;}</style></defs><path class="cls-1" d="M14.41,2.94c-.54-.67-1.54-.94-3.45-.94H4.04c-1.95,0-2.97,.29-3.51,1-.53,.7-.53,1.72-.53,3.14v2.7c0,2.75,.63,4.15,4.04,4.15h6.92c1.66,0,2.57-.24,3.16-.83s.87-1.6,.87-3.32v-2.7c0-1.5-.04-2.53-.59-3.2Zm-4.78,4.93l-3.14,1.71c-.15,.08-.33,.08-.48-.01-.15-.09-.23-.26-.23-.43v-3.42c0-.18,.09-.34,.23-.43,.14-.09,.33-.1,.48-.02l3.14,1.7c.16,.09,.26,.26,.26,.45s-.1,.36-.26,.45Z"/></svg>